<svg width="119" height="118" viewBox="0 0 119 118" fill="none" xmlns="http://www.w3.org/2000/svg">
    <path d="M2.94336 5C1.5703 5 0.443359 3.88601 0.443359 2.5C0.443359 1.12694 1.55734 0 2.94336 0C4.32938 0 5.44336 1.11399 5.44336 2.5C5.44336 3.87306 4.31642 5 2.94336 5Z" fill="currentColor"/>
    <path d="M25.5845 5C24.2114 5 23.0845 3.88601 23.0845 2.5C23.0845 1.12694 24.1985 0 25.5845 0C26.9575 0 28.0845 1.11399 28.0845 2.5C28.0715 3.87306 26.9575 5 25.5845 5Z" fill="currentColor"/>
    <path d="M48.2139 5C46.8408 5 45.7139 3.88601 45.7139 2.5C45.7139 1.12694 46.8279 0 48.2139 0C49.5869 0 50.7139 1.11399 50.7139 2.5C50.7139 3.87306 49.5999 5 48.2139 5Z" fill="currentColor"/>
    <path d="M70.8555 5C69.4825 5 68.3555 3.88601 68.3555 2.5C68.3555 1.12694 69.4695 0 70.8555 0C72.2285 0 73.3555 1.11399 73.3555 2.5C73.3555 3.87306 72.2285 5 70.8555 5Z" fill="currentColor"/>
    <path d="M93.4844 5C92.1114 5 90.9844 3.88601 90.9844 2.5C90.9844 1.12694 92.0984 0 93.4844 0C94.8575 0 95.9844 1.11399 95.9844 2.5C95.9844 3.87306 94.8704 5 93.4844 5Z" fill="currentColor"/>
    <path d="M116.126 5C114.753 5 113.626 3.88601 113.626 2.5C113.626 1.12694 114.74 0 116.126 0C117.512 0 118.626 1.11399 118.626 2.5C118.626 3.87306 117.499 5 116.126 5Z" fill="currentColor"/>
    <path d="M2.94336 27.5528C1.5703 27.5528 0.443359 26.4388 0.443359 25.0528C0.443359 23.6798 1.55734 22.5528 2.94336 22.5528C4.32938 22.5528 5.44336 23.6668 5.44336 25.0528C5.44336 26.4259 4.31642 27.5528 2.94336 27.5528Z" fill="currentColor"/>
    <path d="M25.5845 27.5528C24.2114 27.5528 23.0845 26.4388 23.0845 25.0528C23.0845 23.6798 24.1985 22.5528 25.5845 22.5528C26.9575 22.5528 28.0845 23.6668 28.0845 25.0528C28.0715 26.4259 26.9575 27.5528 25.5845 27.5528Z" fill="currentColor"/>
    <path d="M48.2139 27.5528C46.8408 27.5528 45.7139 26.4388 45.7139 25.0528C45.7139 23.6798 46.8279 22.5528 48.2139 22.5528C49.5869 22.5528 50.7139 23.6668 50.7139 25.0528C50.7139 26.4259 49.5999 27.5528 48.2139 27.5528Z" fill="currentColor"/>
    <path d="M70.8555 27.5528C69.4825 27.5528 68.3555 26.4388 68.3555 25.0528C68.3555 23.6798 69.4695 22.5528 70.8555 22.5528C72.2285 22.5528 73.3555 23.6668 73.3555 25.0528C73.3555 26.4259 72.2285 27.5528 70.8555 27.5528Z" fill="currentColor"/>
    <path d="M93.4844 27.5528C92.1114 27.5528 90.9844 26.4388 90.9844 25.0528C90.9844 23.6798 92.0984 22.5528 93.4844 22.5528C94.8575 22.5528 95.9844 23.6668 95.9844 25.0528C95.9844 26.4259 94.8704 27.5528 93.4844 27.5528Z" fill="currentColor"/>
    <path d="M116.126 27.5528C114.753 27.5528 113.626 26.4388 113.626 25.0528C113.626 23.6798 114.74 22.5528 116.126 22.5528C117.512 22.5528 118.626 23.6668 118.626 25.0528C118.626 26.4259 117.499 27.5528 116.126 27.5528Z" fill="currentColor"/>
    <path d="M2.94336 50.092C1.5703 50.092 0.443359 48.978 0.443359 47.592C0.443359 46.2189 1.55734 45.092 2.94336 45.092C4.32938 45.092 5.44336 46.206 5.44336 47.592C5.44336 48.978 4.31642 50.092 2.94336 50.092Z" fill="currentColor"/>
    <path d="M25.5845 50.092C24.2114 50.092 23.0845 48.978 23.0845 47.592C23.0845 46.2189 24.1985 45.092 25.5845 45.092C26.9575 45.092 28.0845 46.206 28.0845 47.592C28.0715 48.978 26.9575 50.092 25.5845 50.092Z" fill="currentColor"/>
    <path d="M48.2139 50.092C46.8408 50.092 45.7139 48.978 45.7139 47.592C45.7139 46.2189 46.8279 45.092 48.2139 45.092C49.5869 45.092 50.7139 46.206 50.7139 47.592C50.7139 48.978 49.5999 50.092 48.2139 50.092Z" fill="currentColor"/>
    <path d="M70.8555 50.092C69.4825 50.092 68.3555 48.978 68.3555 47.592C68.3555 46.2189 69.4695 45.092 70.8555 45.092C72.2285 45.092 73.3555 46.206 73.3555 47.592C73.3555 48.978 72.2285 50.092 70.8555 50.092Z" fill="currentColor"/>
    <path d="M93.4844 50.092C92.1114 50.092 90.9844 48.978 90.9844 47.592C90.9844 46.2189 92.0984 45.092 93.4844 45.092C94.8575 45.092 95.9844 46.206 95.9844 47.592C95.9844 48.978 94.8704 50.092 93.4844 50.092Z" fill="currentColor"/>
    <path d="M116.126 50.092C114.753 50.092 113.626 48.978 113.626 47.592C113.626 46.2189 114.74 45.092 116.126 45.092C117.512 45.092 118.626 46.206 118.626 47.592C118.626 48.978 117.499 50.092 116.126 50.092Z" fill="currentColor"/>
    <path d="M2.94336 72.6448C1.5703 72.6448 0.443359 71.5308 0.443359 70.1448C0.443359 68.7717 1.55734 67.6448 2.94336 67.6448C4.32938 67.6448 5.44336 68.7588 5.44336 70.1448C5.44336 71.5178 4.31642 72.6448 2.94336 72.6448Z" fill="currentColor"/>
    <path d="M25.5845 72.6448C24.2114 72.6448 23.0845 71.5308 23.0845 70.1448C23.0845 68.7717 24.1985 67.6448 25.5845 67.6448C26.9575 67.6448 28.0845 68.7588 28.0845 70.1448C28.0715 71.5178 26.9575 72.6448 25.5845 72.6448Z" fill="currentColor"/>
    <path d="M48.2139 72.6448C46.8408 72.6448 45.7139 71.5308 45.7139 70.1448C45.7139 68.7717 46.8279 67.6448 48.2139 67.6448C49.5869 67.6448 50.7139 68.7588 50.7139 70.1448C50.7139 71.5178 49.5999 72.6448 48.2139 72.6448Z" fill="currentColor"/>
    <path d="M70.8555 72.6448C69.4825 72.6448 68.3555 71.5308 68.3555 70.1448C68.3555 68.7717 69.4695 67.6448 70.8555 67.6448C72.2285 67.6448 73.3555 68.7588 73.3555 70.1448C73.3555 71.5178 72.2285 72.6448 70.8555 72.6448Z" fill="currentColor"/>
    <path d="M93.4844 72.6448C92.1114 72.6448 90.9844 71.5308 90.9844 70.1448C90.9844 68.7717 92.0984 67.6448 93.4844 67.6448C94.8575 67.6448 95.9844 68.7588 95.9844 70.1448C95.9844 71.5178 94.8704 72.6448 93.4844 72.6448Z" fill="currentColor"/>
    <path d="M116.126 72.6448C114.753 72.6448 113.626 71.5308 113.626 70.1448C113.626 68.7717 114.74 67.6448 116.126 67.6448C117.512 67.6448 118.626 68.7588 118.626 70.1448C118.626 71.5178 117.499 72.6448 116.126 72.6448Z" fill="currentColor"/>
    <path d="M2.94336 95.1976C1.5703 95.1976 0.443359 94.0836 0.443359 92.6976C0.443359 91.3246 1.55734 90.1976 2.94336 90.1976C4.32938 90.1976 5.44336 91.3116 5.44336 92.6976C5.44336 94.0707 4.31642 95.1976 2.94336 95.1976Z" fill="currentColor"/>
    <path d="M25.5845 95.1976C24.2114 95.1976 23.0845 94.0836 23.0845 92.6976C23.0845 91.3246 24.1985 90.1976 25.5845 90.1976C26.9575 90.1976 28.0845 91.3116 28.0845 92.6976C28.0715 94.0707 26.9575 95.1976 25.5845 95.1976Z" fill="currentColor"/>
    <path d="M48.2139 95.1976C46.8408 95.1976 45.7139 94.0836 45.7139 92.6976C45.7139 91.3246 46.8279 90.1976 48.2139 90.1976C49.5869 90.1976 50.7139 91.3116 50.7139 92.6976C50.7139 94.0707 49.5999 95.1976 48.2139 95.1976Z" fill="currentColor"/>
    <path d="M70.8555 95.1976C69.4825 95.1976 68.3555 94.0836 68.3555 92.6976C68.3555 91.3246 69.4695 90.1976 70.8555 90.1976C72.2285 90.1976 73.3555 91.3116 73.3555 92.6976C73.3555 94.0707 72.2285 95.1976 70.8555 95.1976Z" fill="currentColor"/>
    <path d="M93.4844 95.1976C92.1114 95.1976 90.9844 94.0836 90.9844 92.6976C90.9844 91.3246 92.0984 90.1976 93.4844 90.1976C94.8575 90.1976 95.9844 91.3116 95.9844 92.6976C95.9844 94.0707 94.8704 95.1976 93.4844 95.1976Z" fill="currentColor"/>
    <path d="M116.126 95.1976C114.753 95.1976 113.626 94.0836 113.626 92.6976C113.626 91.3246 114.74 90.1976 116.126 90.1976C117.512 90.1976 118.626 91.3116 118.626 92.6976C118.626 94.0707 117.499 95.1976 116.126 95.1976Z" fill="currentColor"/>
    <path d="M2.94336 117.737C1.5703 117.737 0.443359 116.623 0.443359 115.237C0.443359 113.864 1.55734 112.737 2.94336 112.737C4.32938 112.737 5.44336 113.851 5.44336 115.237C5.44336 116.623 4.31642 117.737 2.94336 117.737Z" fill="currentColor"/>
    <path d="M25.5845 117.737C24.2114 117.737 23.0845 116.623 23.0845 115.237C23.0845 113.864 24.1985 112.737 25.5845 112.737C26.9575 112.737 28.0845 113.851 28.0845 115.237C28.0715 116.623 26.9575 117.737 25.5845 117.737Z" fill="currentColor"/>
    <path d="M48.2139 117.737C46.8408 117.737 45.7139 116.623 45.7139 115.237C45.7139 113.864 46.8279 112.737 48.2139 112.737C49.5869 112.737 50.7139 113.851 50.7139 115.237C50.7139 116.623 49.5999 117.737 48.2139 117.737Z" fill="currentColor"/>
    <path d="M70.8555 117.737C69.4825 117.737 68.3555 116.623 68.3555 115.237C68.3555 113.864 69.4695 112.737 70.8555 112.737C72.2285 112.737 73.3555 113.851 73.3555 115.237C73.3555 116.623 72.2285 117.737 70.8555 117.737Z" fill="currentColor"/>
    <path d="M93.4844 117.737C92.1114 117.737 90.9844 116.623 90.9844 115.237C90.9844 113.864 92.0984 112.737 93.4844 112.737C94.8575 112.737 95.9844 113.851 95.9844 115.237C95.9844 116.623 94.8704 117.737 93.4844 117.737Z" fill="currentColor"/>
    <path d="M116.126 117.737C114.753 117.737 113.626 116.623 113.626 115.237C113.626 113.864 114.74 112.737 116.126 112.737C117.512 112.737 118.626 113.851 118.626 115.237C118.626 116.623 117.499 117.737 116.126 117.737Z" fill="currentColor"/>
</svg>
