<svg width="1513" height="116" viewBox="0 0 1513 116" fill="none" xmlns="http://www.w3.org/2000/svg">
    <g clip-path="url(#clip0_605_69)">
        <path d="M1407.8 11.6302C1400.76 6.49034 1391.22 6.49042 1384.19 11.6304L1276.83 90.126C1269.8 95.2647 1260.25 95.2661 1253.22 90.1294L1145.78 11.6245C1138.75 6.48776 1129.21 6.48915 1122.18 11.6279L1014.82 90.1233C1007.79 95.2634 998.242 95.2634 991.211 90.1233L883.855 11.6307C876.825 6.4906 867.276 6.49068 860.246 11.6309L768.34 78.8296C761.312 83.9685 751.767 83.9701 744.737 78.8335L652.753 11.6241C645.723 6.48756 636.178 6.48905 629.149 11.6277L521.785 90.1259C514.757 95.2647 505.211 95.2661 498.181 90.1294L390.743 11.6245C383.713 6.48777 374.167 6.48915 367.139 11.6279L259.779 90.1233C252.748 95.2634 243.2 95.2634 236.17 90.1233L128.813 11.6304C121.783 6.49044 112.235 6.49034 105.205 11.6302L-3.55188 91.1439C-8.23212 94.5657 -8.24029 101.549 -3.56808 104.981V104.981C-0.551997 107.197 3.55262 107.202 6.57381 104.993L105.205 32.877C112.235 27.7368 121.783 27.7367 128.814 32.8768L236.17 111.369C243.2 116.509 252.748 116.509 259.779 111.369L367.139 32.874C374.167 27.7353 383.713 27.7339 390.743 32.8706L498.181 111.375C505.211 116.512 514.757 116.511 521.785 111.372L629.145 32.8768C636.175 27.7367 645.724 27.7368 652.754 32.8771L744.731 100.128C751.763 105.27 761.315 105.268 768.346 100.124L860.245 32.8839C867.275 27.7399 876.827 27.7383 883.859 32.8798L991.211 111.369C998.242 116.509 1007.79 116.509 1014.82 111.369L1122.18 32.874C1129.21 27.7353 1138.75 27.7339 1145.78 32.8706L1253.22 111.375C1260.25 116.512 1269.8 116.511 1276.83 111.372L1384.19 32.8738C1391.22 27.7351 1400.76 27.7337 1407.79 32.8702L1506.51 104.995C1509.53 107.202 1513.63 107.191 1516.64 104.969V104.969C1521.28 101.538 1521.26 94.5882 1516.6 91.1809L1407.8 11.6302Z" fill="#EF4444"/>
    </g>
    <defs>
        <clipPath id="clip0_605_69">
            <rect width="1512" height="115" fill="white" transform="translate(0.356323 0.982666)"/>
        </clipPath>
    </defs>
</svg>
