<svg width="78" height="89" viewBox="0 0 78 89" fill="none" xmlns="http://www.w3.org/2000/svg">
    <path
        d="M5.57471 22.37L21.4374 5.81C18.6212 7.49 16.0061 9.5 13.6402 11.78L11.2933 14.23C9.10933 16.71 7.18396 19.43 5.57471 22.37Z"
        fill="currentColor"/>
    <path
        d="M0.842773 35.53L34.0433 0.870026C33.1237 1.06003 32.2233 1.29001 31.3229 1.54001L1.48456 32.69C1.23551 33.63 1.02477 34.58 0.842773 35.53Z"
        fill="currentColor"/>
    <path
        d="M0 44.34C0 44.43 0 44.53 0 44.62L42.7411 0C42.6549 0 42.5591 0 42.4729 0C41.8599 0 41.2372 0.0200085 40.6337 0.0400085L0.0383092 42.42C0.0191514 43.06 0 43.7 0 44.34Z"
        fill="currentColor"/>
    <path
        d="M0.665477 52.16L49.9681 0.690002C49.3743 0.580002 48.7708 0.480024 48.1769 0.400024L0.387695 50.29C0.464327 50.91 0.560109 51.54 0.665477 52.16Z"
        fill="currentColor"/>
    <path
        d="M2.27008 58.69L56.2185 2.37003C55.7012 2.18003 55.1744 2.01001 54.6475 1.85001L1.77197 57.05C1.92524 57.6 2.09766 58.15 2.27008 58.69Z"
        fill="currentColor"/>
    <path
        d="M4.61663 64.46L61.7548 4.81C61.2951 4.56 60.8257 4.33001 60.3563 4.10001L3.93652 63C4.15684 63.5 4.37716 63.98 4.61663 64.46Z"
        fill="currentColor"/>
    <path
        d="M7.56725 69.6L66.6787 7.89001C66.2668 7.59001 65.8549 7.30002 65.4335 7.02002L6.73389 68.3C7.0021 68.75 7.27988 69.18 7.56725 69.6Z"
        fill="currentColor"/>
    <path
        d="M11.0539 74.18L71.0562 11.54C70.6922 11.2 70.3282 10.86 69.9546 10.53L10.0864 73.03C10.4025 73.42 10.7186 73.8 11.0539 74.18Z"
        fill="currentColor"/>
    <path
        d="M15.0579 78.21L74.9165 15.72C74.6004 15.33 74.2747 14.94 73.9491 14.56L13.9468 77.2C14.3204 77.55 14.6843 77.88 15.0579 78.21Z"
        fill="currentColor"/>
    <path
        d="M19.5885 81.71L78.2689 20.45C78.0007 20.01 77.7229 19.58 77.4356 19.15L18.3433 80.84C18.7552 81.13 19.1671 81.42 19.5885 81.71Z"
        fill="currentColor"/>
    <path
        d="M24.6752 84.61L81.0471 25.76C80.8268 25.27 80.6065 24.78 80.367 24.3L23.2671 83.91C23.7365 84.15 24.2058 84.39 24.6752 84.61Z"
        fill="currentColor"/>
    <path
        d="M30.3937 86.86L83.2118 31.72C83.0586 31.17 82.8861 30.62 82.7137 30.08L28.8228 86.34C29.3304 86.53 29.8573 86.7 30.3937 86.86Z"
        fill="currentColor"/>
    <path
        d="M36.8785 88.3L84.5815 38.5C84.5048 37.87 84.409 37.24 84.3037 36.62L35.0776 88.01C35.6811 88.13 36.275 88.22 36.8785 88.3Z"
        fill="currentColor"/>
    <path
        d="M42.4729 88.69C43.1339 88.69 43.7852 88.67 44.427 88.64L84.8979 46.39C84.9267 45.71 84.9458 45.03 84.9458 44.35C84.9458 44.29 84.9458 44.24 84.9458 44.18L42.3101 88.69C42.3675 88.69 42.425 88.69 42.4729 88.69Z"
        fill="currentColor"/>
    <path
        d="M53.7852 87.1L83.4319 56.15C83.681 55.21 83.9012 54.26 84.0928 53.3L51.0552 87.79C51.9748 87.59 52.8848 87.35 53.7852 87.1Z"
        fill="currentColor"/>
    <path d="M79.2271 66.59L63.7764 82.72C70.1751 78.83 75.5105 73.26 79.2271 66.59Z" fill="currentColor"/>
</svg>
