<svg width="45" height="79" viewBox="0 0 45 79" fill="none" xmlns="http://www.w3.org/2000/svg">
<path d="M2.15002 4.30002C0.960024 4.30002 0 3.33002 0 2.15002C0 0.960024 0.970024 0 2.15002 0C3.33002 0 4.29999 0.970024 4.29999 2.15002C4.29999 3.34002 3.34002 4.30002 2.15002 4.30002Z" fill="currentColor"/>
<path d="M2.15002 22.77C0.960024 22.77 0 21.8 0 20.62C0 19.43 0.970024 18.47 2.15002 18.47C3.33002 18.47 4.29999 19.44 4.29999 20.62C4.29999 21.8 3.34002 22.77 2.15002 22.77Z" fill="currentColor"/>
<path d="M22.4 22.77C21.21 22.77 20.25 21.8 20.25 20.62C20.25 19.43 21.22 18.47 22.4 18.47C23.59 18.47 24.55 19.44 24.55 20.62C24.56 21.8 23.59 22.77 22.4 22.77Z" fill="currentColor"/>
<path d="M2.15002 41.24C0.960024 41.24 0 40.27 0 39.09C0 37.9 0.970024 36.94 2.15002 36.94C3.33002 36.94 4.29999 37.91 4.29999 39.09C4.29999 40.27 3.34002 41.24 2.15002 41.24Z" fill="currentColor"/>
<path d="M22.4 41.24C21.21 41.24 20.25 40.27 20.25 39.09C20.25 37.9 21.22 36.94 22.4 36.94C23.59 36.94 24.55 37.91 24.55 39.09C24.56 40.27 23.59 41.24 22.4 41.24Z" fill="currentColor"/>
<path d="M42.65 41.24C41.46 41.24 40.5 40.27 40.5 39.09C40.5 37.9 41.47 36.94 42.65 36.94C43.84 36.94 44.8 37.91 44.8 39.09C44.81 40.27 43.84 41.24 42.65 41.24Z" fill="currentColor"/>
<path d="M2.15002 59.7C0.960024 59.7 0 58.73 0 57.55C0 56.36 0.970024 55.4 2.15002 55.4C3.33002 55.4 4.29999 56.37 4.29999 57.55C4.29999 58.74 3.34002 59.7 2.15002 59.7Z" fill="currentColor"/>
<path d="M22.4 59.7C21.21 59.7 20.25 58.73 20.25 57.55C20.25 56.36 21.22 55.4 22.4 55.4C23.59 55.4 24.55 56.37 24.55 57.55C24.56 58.74 23.59 59.7 22.4 59.7Z" fill="currentColor"/>
<path d="M2.15002 78.17C3.33744 78.17 4.29999 77.2074 4.29999 76.02C4.29999 74.8326 3.33744 73.87 2.15002 73.87C0.962612 73.87 0 74.8326 0 76.02C0 77.2074 0.962612 78.17 2.15002 78.17Z" fill="currentColor"/>
</svg>
