<svg width="578" height="241" viewBox="0 0 578 241" fill="none" xmlns="http://www.w3.org/2000/svg">
<g clip-path="url(#clip0_1_2)">
<path d="M93.53 43C104.197 43 113.723 44.79 122.11 48.37C130.052 51.709 137.148 56.779 142.88 63.21C143.04 63.38 143.2 63.55 143.35 63.73C144.16 64.66 144.93 65.61 145.68 66.6C156.565 64.2817 167.707 63.4075 178.82 64C187.146 64.4163 195.427 65.4727 203.59 67.16C204.857 67.4212 206.14 67.5983 207.43 67.69C206.763 66.1767 206.043 64.6867 205.27 63.22C202.904 58.5491 200.21 54.0512 197.21 49.76L197.12 49.63C193.272 44.1121 188.92 38.9633 184.12 34.25C172.804 23.2854 159.384 14.7267 144.67 9.09C129.303 3.03 112.257 0 93.53 0H0V240.76H93.53C112.25 240.76 129.297 237.76 144.67 231.76C154.314 228.035 163.433 223.073 171.8 217L184.68 206C188.106 202.583 191.296 198.938 194.23 195.09C194.33 194.97 194.42 194.84 194.52 194.71L158.64 159L155.55 156C152.808 163.722 148.681 170.879 143.37 177.12C137.561 183.803 130.294 189.061 122.13 192.49C113.757 196.07 104.23 197.86 93.55 197.86H56.18V43H93.53ZM189.11 185.2L189.05 185.12C176.22 166.3 156.27 156.3 155.55 155.95L158.63 159.01L194.51 194.74C192.975 191.417 191.169 188.226 189.11 185.2Z" fill="#EF4444"/>
<path d="M533.72 -2.76398e-05C529.466 -0.111587 525.292 1.16628 521.83 3.63997C518.828 5.64246 516.609 8.62033 515.55 12.07L494.11 93.54L482.5 137.65C481.5 141.51 480.537 145.627 479.61 150C478.683 154.373 477.773 159 476.88 163.88C475.887 158.933 474.73 154.267 473.41 149.88C472.477 146.82 471.573 143.88 470.7 141.06C470.33 139.87 469.97 138.71 469.61 137.57L465.61 124.65C455.27 126.22 438.91 128.51 419.3 130.49L422.51 141.06L440.57 200.58L442.2 205.96V206.03L444.4 213.27L445.54 217.03L452.72 240.68H503.28L510.08 218.68V218.62L510.58 217L513.96 206L515.39 201.37L577.68 -2.76398e-05H533.72ZM446.72 63.18L430.94 12.07C429.84 8.46514 427.539 5.34551 424.42 3.22997C421.28 1.07664 417.287 -2.76398e-05 412.44 -2.76398e-05H395.91C391.667 -0.121308 387.507 1.18905 384.1 3.71997C381.166 5.77702 378.944 8.69484 377.74 12.07L361.87 63.18L356.87 79.4C372.036 79.9825 387.223 79.2061 402.25 77.08C402.56 77.08 402.87 77 403.18 76.96C405.3 76.68 407.47 76.36 409.69 76.02C423.46 73.89 437.69 75.15 451.35 78.21L446.72 63.18ZM339.72 134.63L338.78 137.63C338.44 138.77 338.1 139.94 337.78 141.12C336.88 144.153 335.957 147.313 335.01 150.6C333.677 155.167 332.463 160.04 331.37 165.22C330.85 160.327 330.025 155.47 328.9 150.68C328.1 147.35 327.31 144.17 326.52 141.12C326.21 139.93 325.9 138.77 325.59 137.63L324.7 134.26C321.533 134.14 318.383 133.983 315.25 133.79C293.61 132.47 278.2 131.11 267.25 129.85L270.73 141.12L290.68 206L290.73 206.17L294.07 217L294.12 217.16L301.4 240.72H352L359.26 217.12V217L362.61 206.12V206L382.61 141.1L385.01 133.31C370.39 134.24 355 134.76 339.68 134.63H339.72ZM305.92 63.18L292.47 12.07C291.506 8.46429 289.24 5.34358 286.11 3.30997C282.501 1.00816 278.278 -0.145884 274 -2.76398e-05H227L245.64 60.36C259.35 58.49 276.89 58.04 293.77 63.18C298.458 64.5915 303.001 66.4431 307.34 68.71L305.92 63.18Z" fill="#EF4444"/>
<path d="M276.8 206.47L279.28 217.21L188.84 217.27C192.065 214.751 195.143 212.05 198.06 209.18C199.027 208.227 199.977 207.257 200.91 206.27H218.26H239.53H276.73L276.8 206.47Z" fill="#282828"/>
<path d="M109.1 96.8299C109.02 96.6222 108.93 96.4186 108.83 96.2199C108.69 95.8999 108.54 95.5899 108.38 95.2899C108.26 95.0399 108.12 94.7899 107.98 94.5399L107.89 94.3799L107.78 94.1899C107.644 93.9234 107.49 93.6662 107.32 93.4199C107.18 93.1899 107.04 92.9599 106.88 92.7399C106.51 92.1899 106.11 91.6599 105.7 91.1499C103.931 88.8665 101.67 87.011 99.0851 85.7213C96.5004 84.4315 93.6583 83.7406 90.77 83.6999C90.2088 83.6995 89.6479 83.7295 89.09 83.7899C78.62 84.7899 70.4 94.7899 70.4 106.94C70.4 119.09 78.62 129.13 89.09 130.09C89.6479 130.15 90.2088 130.18 90.77 130.18C92.017 130.183 93.2608 130.052 94.48 129.79C98.8108 128.828 102.688 126.428 105.48 122.98L109.48 97.7999C109.37 97.4699 109.24 97.1499 109.1 96.8299ZM474.58 98.5499L473.85 98.1199C469.847 95.853 465.466 94.3316 460.92 93.6299L455.8 92.8099C427.34 88.3299 417.46 88.2299 406.8 89.4499C404.09 89.7599 401.33 90.1599 398.21 90.5899C391.47 91.5299 383.01 92.5899 369.67 93.3999C363.941 93.7145 358.199 93.7145 352.47 93.3999C338.653 92.6905 324.996 90.1137 311.87 85.7399C307.74 84.3599 304.18 82.9599 301.25 81.7399C287.196 75.5942 271.964 72.6106 256.63 72.9999C254.25 73.0699 251.94 73.2099 249.72 73.4099C240.251 74.2036 230.919 76.1789 221.94 79.2899C218.934 80.3532 215.778 80.9304 212.59 80.9999C210.314 81.0477 208.04 80.8397 205.81 80.3799C184.69 76.0799 167.13 76.3799 153.03 78.8299C126.03 83.4699 111.67 95.8299 109.49 97.8299L105.49 123.01C124.561 125.206 142.969 131.335 159.55 141.01L159.88 141.21C176.99 151.435 191.775 165.12 203.29 181.39C207.854 187.75 211.884 194.476 215.34 201.5C216.125 203.111 217.045 204.653 218.09 206.11L218.26 206.33C220.798 209.848 224.083 212.761 227.88 214.86C231.98 217.13 236.23 218.08 238.26 214.18C239.424 211.731 239.865 209.001 239.53 206.31C239.535 206.243 239.535 206.177 239.53 206.11C238.38 193.56 226.23 175.23 212.98 158.64C208.04 152.46 202.98 146.52 198.22 141.21C186.76 128.34 177.41 119.21 177.41 119.21C188.5 107.91 205.19 106.72 217.92 107.91C224.022 108.469 230.053 109.642 235.92 111.41C244.778 113.758 253.805 115.413 262.92 116.36C279.92 118.36 299.92 119.13 320.61 119.2C328.52 119.2 336.54 119.2 344.55 118.99C360.09 118.67 375.55 117.99 390 117.26C398.69 116.8 407 116.26 414.77 115.77C436.09 114.33 453.12 112.77 461.65 111.99C465.5 111.63 467.65 111.41 467.65 111.41C469.754 111.25 471.836 110.868 473.86 110.27C482.52 107.41 479.2 101.35 474.58 98.5499Z" fill="#282828"/>
</g>
<defs>
<clipPath id="clip0_1_2">
<rect width="578" height="241" fill="white"/>
</clipPath>
</defs>
</svg>
