<svg width="13" height="12" viewBox="0 0 13 12" fill="none" xmlns="http://www.w3.org/2000/svg">
    <g clip-path="url(#clip0_324_2105)">
        <path d="M3.86914 5V11M7.86914 2.94L7.36914 5H10.2841C10.4394 5 10.5925 5.03614 10.7314 5.10557C10.8702 5.175 10.991 5.2758 11.0841 5.4C11.1773 5.5242 11.2402 5.66837 11.268 5.82111C11.2958 5.97386 11.2876 6.13096 11.2441 6.28L10.0791 10.28C10.0186 10.4877 9.89224 10.6702 9.71914 10.8C9.54604 10.9298 9.33551 11 9.11914 11H2.36914C2.10392 11 1.84957 10.8946 1.66203 10.7071C1.4745 10.5196 1.36914 10.2652 1.36914 10V6C1.36914 5.73478 1.4745 5.48043 1.66203 5.29289C1.84957 5.10536 2.10392 5 2.36914 5H3.74914C3.93518 4.9999 4.11751 4.94791 4.27562 4.84986C4.43373 4.75181 4.56135 4.61161 4.64414 4.445L6.36914 1C6.60493 1.00292 6.83701 1.05908 7.04804 1.1643C7.25908 1.26951 7.4436 1.42105 7.58784 1.6076C7.73208 1.79415 7.8323 2.01088 7.88101 2.2416C7.92972 2.47232 7.92566 2.71107 7.86914 2.94Z" stroke="currentColor" stroke-linecap="round" stroke-linejoin="round"/>
    </g>
    <defs>
        <clipPath id="clip0_324_2105">
            <rect width="12" height="12" fill="white" transform="translate(0.369141)"/>
        </clipPath>
    </defs>
</svg>
