<svg width="17" height="17" viewBox="0 0 17 17" fill="none" xmlns="http://www.w3.org/2000/svg">
<path d="M14.1663 4.95834H7.79134M9.91634 12.0417H3.54134M9.91634 12.0417C9.91634 13.2153 10.8677 14.1667 12.0413 14.1667C13.2149 14.1667 14.1663 13.2153 14.1663 12.0417C14.1663 10.8681 13.2149 9.91668 12.0413 9.91668C10.8677 9.91668 9.91634 10.8681 9.91634 12.0417ZM7.08301 4.95834C7.08301 6.13195 6.13161 7.08334 4.95801 7.08334C3.7844 7.08334 2.83301 6.13195 2.83301 4.95834C2.83301 3.78474 3.7844 2.83334 4.95801 2.83334C6.13161 2.83334 7.08301 3.78474 7.08301 4.95834Z" stroke="currentColor" stroke-linecap="round" stroke-linejoin="round"/>
</svg>
