<svg width="25" height="24" viewBox="0 0 25 24" fill="none" xmlns="http://www.w3.org/2000/svg">
    <path d="M2.18945 2.05H4.18945L6.84945 14.47C6.94703 14.9249 7.20012 15.3315 7.56516 15.6199C7.93021 15.9082 8.38436 16.0604 8.84945 16.05H18.6295C19.0846 16.0493 19.5259 15.8933 19.8805 15.6078C20.235 15.3224 20.4816 14.9245 20.5795 14.48L22.2295 7.05H5.25945M9.13945 21C9.13945 21.5523 8.69174 22 8.13945 22C7.58717 22 7.13945 21.5523 7.13945 21C7.13945 20.4477 7.58717 20 8.13945 20C8.69174 20 9.13945 20.4477 9.13945 21ZM20.1395 21C20.1395 21.5523 19.6917 22 19.1395 22C18.5872 22 18.1395 21.5523 18.1395 21C18.1395 20.4477 18.5872 20 19.1395 20C19.6917 20 20.1395 20.4477 20.1395 21Z" stroke="currentColor" stroke-width="2" stroke-linecap="round" stroke-linejoin="round"/>
</svg>
