<svg xmlns="http://www.w3.org/2000/svg" version="1.1" xmlns:xlink="http://www.w3.org/1999/xlink" xmlns:svgjs="http://svgjs.dev/svgjs" width="540" height="232"><svg width="540" height="232" viewBox="0 0 540 232" fill="none" xmlns="http://www.w3.org/2000/svg">
<path d="M206 116.421C206 133.15 203.15 148.564 197.45 162.663C191.855 176.657 183.885 188.704 173.54 198.804C163.301 208.905 150.951 216.796 136.489 222.478C122.027 228.159 105.982 231 88.3536 231H0V2H88.3536C105.982 2 122.027 4.8408 136.489 10.5224C150.951 16.204 163.301 24.1477 173.54 34.3536C183.885 44.4542 191.855 56.5013 197.45 70.4948C203.15 84.4884 206 99.7971 206 116.421ZM157.231 116.421C157.231 104.427 155.648 93.6421 152.481 84.0675C149.314 74.493 144.775 66.3915 138.864 59.7629C132.953 53.1344 125.722 48.0315 117.171 44.4542C108.727 40.8769 99.1207 39.0882 88.3536 39.0882H47.8186V193.912H88.3536C99.1207 193.912 108.727 192.176 117.171 188.704C125.722 185.126 132.953 180.023 138.864 173.395C144.775 166.661 149.314 158.507 152.481 148.932C155.648 139.358 157.231 128.521 157.231 116.421Z" fill="#EF4444"></path>
<path d="M540 0L468.189 232H424.943L377.548 80.2646C376.803 78.1328 376.059 75.7877 375.314 73.2295C374.569 70.6713 373.878 67.9531 373.239 65.0751C372.601 67.9531 371.91 70.6713 371.165 73.2295C370.42 75.7877 369.675 78.1328 368.931 80.2646L321.057 232H277.651L206 0H246.214C250.363 0 253.821 0.959342 256.587 2.87802C259.459 4.7967 261.321 7.35493 262.172 10.5527L298.077 141.343C298.928 144.967 299.78 148.911 300.631 153.174C301.588 157.331 302.492 161.755 303.344 166.445C304.301 161.649 305.312 157.172 306.376 153.014C307.439 148.857 308.61 144.967 309.886 141.343L351.696 10.5527C352.547 7.8879 354.356 5.48955 357.122 3.35769C359.994 1.11923 363.452 0 367.495 0H381.538C385.687 0 389.038 1.01264 391.591 3.03792C394.251 4.9566 396.219 7.46153 397.495 10.5527L439.146 141.343C440.422 144.753 441.593 148.484 442.656 152.535C443.72 156.479 444.731 160.689 445.688 165.166C446.54 160.689 447.337 156.479 448.082 152.535C448.933 148.484 449.784 144.753 450.635 141.343L486.541 10.5527C487.286 7.78131 489.094 5.32967 491.967 3.19779C494.839 1.06593 498.297 0 502.339 0H540Z" fill="#EF4444"></path>
</svg><style>@media (prefers-color-scheme: light) { :root { filter: none; } }
@media (prefers-color-scheme: dark) { :root { filter: none; } }
</style></svg>