<svg width="24" height="24" viewBox="0 0 24 24" fill="none" xmlns="http://www.w3.org/2000/svg">
<path d="M19.272 4.49008L17.9448 4.34003C13.9736 3.88991 9.9709 3.88991 5.99973 4.34003L4.72705 4.49008C3.15576 4.6855 1.97583 6.16132 1.99987 7.90115V16.1037C1.97583 17.8436 3.15576 19.3194 4.72705 19.5148L6.05427 19.6649C10.0254 20.115 14.0281 20.115 17.9993 19.6649L19.272 19.5148C20.8433 19.3194 22.0232 17.8436 21.9992 16.1037V7.90115C22.0232 6.16132 20.8433 4.6855 19.272 4.49008ZM14.7267 12.6226L11.1904 15.2235C10.9845 15.3478 10.7349 15.3468 10.5299 15.2208C10.3248 15.0947 10.1931 14.8614 10.1814 14.6033V9.40162C10.1819 9.12433 10.3213 8.86992 10.5439 8.74008C10.7666 8.61024 11.0362 8.62614 11.245 8.78143L14.7812 11.3822C14.9718 11.5189 15.0867 11.7522 15.0867 12.0024C15.0867 12.2527 14.9718 12.486 14.7812 12.6226H14.7267Z" fill="currentColor"/>
</svg>
